{"title":"Murder on the Orient Express 2017 HC.WEBRip.XviD.MP3-VVEXO","magnet":"magnet:?xt=urn:btih:b4618f6f64896ed7eea3ab226df13a2a8c875a44&dn=Murder+on+the+Orient+Express+2017+HC.WEBRip.XviD.MP3-VVEXO&tr=udp%3A%2F%2Ftracker.leechers-paradise.org%3A6969&tr=udp%3A%2F%2Fzer0day.ch%3A1337&tr=udp%3A%2F%2Fopen.demonii.com%3A1337&tr=udp%3A%2F%2Ftracker.coppersurfer.tk%3A6969&tr=udp%3A%2F%2Fexodus.desync.com%3A6969","uploader":"vvesko","categoryP":"video","categoryS":"movies","size":"1105514441","seeders":"81","leechers":"49","description":"General\r\nComplete name               : Murder.on.the.Orient.Express.2017.HC.WEBRip.XviD.MP3-VVEXO.avi\r\nFormat                      : AVI\r\nFormat/Info                 : Audio Video Interleave\r\nFile size                   : 1 011 MiB\r\nDuration                    : 1 h 48 min\r\nOverall bit rate            : 1 298 kb/s\r\nWriting application         : MEncoder SVN-r22963\r\nWriting library             : MPlayer\r\n\r\nVideo\r\nID                          : 0\r\nFormat                      : MPEG-4 Visual\r\nFormat profile              : <a href=\"/cdn-cgi/l/email-protection\" class=\"__cf_email__\" data-cfemail=\"aefdc7c3dec2cbeee29f\">[email&#xA0;protected]</a>\r\nFormat settings, BVOP       : No\r\nFormat settings, QPel       : No\r\nFormat settings, GMC        : No warppoints\r\nFormat settings, Matrix     : Default (H.263)\r\nCodec ID                    : XVID\r\nCodec ID/Hint               : XviD\r\nDuration                    : 1 h 48 min\r\nBit rate                    : 1 126 kb/s\r\nWidth                       : 720 pixels\r\nHeight                      : 304 pixels\r\nDisplay aspect ratio        : 2.35:1\r\nFrame rate                  : 24.000 FPS\r\nColor space                 : YUV\r\nChroma subsampling          : 4:2:0\r\nBit depth                   : 8 bits\r\nScan type                   : Progressive\r\nCompression mode            : Lossy\r\nBits/(Pixel*Frame)          : 0.214\r\nStream size                 : 877 MiB (87%)\r\nWriting library             : Lavc51.40.2\r\n\r\nAudio\r\nID                          : 1\r\nFormat                      : MPEG Audio\r\nFormat version              : Version 1\r\nFormat profile              : Layer 3\r\nCodec ID                    : 55\r\nCodec ID/Hint               : MP3\r\nDuration                    : 1 h 48 min\r\nBit rate mode               : Constant\r\nBit rate                    : 160 kb/s\r\nChannel(s)                  : 2 channels\r\nSampling rate               : 44.1 kHz\r\nCompression mode            : Lossy\r\nStream size                 : 125 MiB (12%)\r\nAlignment                   : Aligned on interleaves\r\nInterleave, duration        : 26  ms (0.63 video frame)\r\nInterleave, preload duratio : 522  ms","last_updated":"2018-01-27T12:11:40.966Z","parsed":{"xt":"urn:btih:b4618f6f64896ed7eea3ab226df13a2a8c875a44","dn":"Murder on the Orient Express 2017 HC.WEBRip.XviD.MP3-VVEXO","tr":["udp://exodus.desync.com:6969","udp://open.demonii.com:1337","udp://tracker.coppersurfer.tk:6969","udp://tracker.leechers-paradise.org:6969","udp://zer0day.ch:1337"],"infoHash":"b4618f6f64896ed7eea3ab226df13a2a8c875a44","infoHashBuffer":{"type":"Buffer","data":[180,97,143,111,100,137,110,215,238,163,171,34,109,241,58,42,140,135,90,68]},"name":"Murder on the Orient Express 2017 HC.WEBRip.XviD.MP3-VVEXO","announce":["udp://exodus.desync.com:6969","udp://open.demonii.com:1337","udp://tracker.coppersurfer.tk:6969","udp://tracker.leechers-paradise.org:6969","udp://zer0day.ch:1337"],"urlList":[]}}